<svg viewBox="0 0 44 44" fill="none" xmlns="http://www.w3.org/2000/svg">
<path d="M7.33301 20.1667H29.333C32.7899 20.1667 34.5184 20.1667 35.5924 21.2407C36.6663 22.3147 36.6663 24.0431 36.6663 27.5001V29.3334C36.6663 34.5188 36.6663 37.1115 35.0554 38.7225C33.4444 40.3334 30.8517 40.3334 25.6663 40.3334H18.333C13.1476 40.3334 10.5548 40.3334 8.94392 38.7225C7.33301 37.1115 7.33301 34.5188 7.33301 29.3334V20.1667Z" stroke="currentColor" stroke-width="1.5"/>
<path d="M7.33544 20.1662C6.44849 16.856 6.00501 15.2009 6.38644 13.7774C6.63632 12.8448 7.12727 11.9945 7.80994 11.3118C8.85203 10.2697 10.5071 9.82625 13.8173 8.93929L26.6561 5.49915C27.8903 5.16843 28.5074 5.00309 29.048 4.96765C31.2678 4.82215 33.3565 6.02816 34.3405 8.02328C34.5801 8.50911 34.7455 9.12625 35.0762 10.3605C35.1864 10.7719 35.2416 10.9776 35.2533 11.1578C35.3019 11.8978 34.8998 12.594 34.2347 12.922C34.0728 13.0019 33.8671 13.057 33.4557 13.1672L7.33544 20.1662Z" stroke="currentColor" stroke-width="1.5"/>
<path d="M26.9504 5.39258L25.7812 15.1959" stroke="currentColor" stroke-width="1.5" stroke-linecap="round"/>
<path d="M15.4407 8.47729L14.2715 18.2806" stroke="currentColor" stroke-width="1.5" stroke-linecap="round"/>
<path d="M25.667 30.2499C25.667 29.4759 24.9388 28.9537 23.4824 27.9096C22.006 26.8513 21.2679 26.322 20.7174 26.7106C20.167 27.0991 20.167 28.1494 20.167 30.2499C20.167 32.3503 20.167 33.4007 20.7174 33.7891C21.2679 34.1778 22.006 33.6485 23.4824 32.5901C24.9388 31.5461 25.667 31.0239 25.667 30.2499Z" stroke="currentColor" stroke-width="1.5" stroke-linecap="round"/>
</svg>
