<svg viewBox="0 0 38 37" fill="none" xmlns="http://www.w3.org/2000/svg">
<path d="M12.8789 18.4702H12.8927M19.0108 18.4702H19.0246M25.1565 18.4702H25.1704" stroke="currentColor" stroke-width="3.35222" stroke-linecap="round" stroke-linejoin="round"/>
<path d="M19.0245 33.8351C27.5099 33.8351 34.3888 26.9562 34.3888 18.4708C34.3888 9.98529 27.5099 3.10645 19.0245 3.10645C10.539 3.10645 3.66016 9.98529 3.66016 18.4708C3.66016 20.9286 4.23727 23.2515 5.26336 25.3117C5.53605 25.8592 5.62681 26.485 5.46872 27.0757L4.55361 30.496C4.15635 31.9806 5.51465 33.3388 6.99936 32.9417L10.4195 32.0266C11.0103 31.8685 11.6361 31.9593 12.1836 32.2318C14.2437 33.258 16.5667 33.8351 19.0245 33.8351Z" stroke="currentColor" stroke-width="2.51416"/>
</svg>
