<svg viewBox="0 0 41 41" fill="none" xmlns="http://www.w3.org/2000/svg">
<path d="M3.58984 20.8051H27.0554M27.0554 20.8051L21.189 15.7769M27.0554 20.8051L21.189 25.8335" stroke="currentColor" stroke-width="2.51416" stroke-linecap="round" stroke-linejoin="round"/>
<path d="M15.3223 12.426C15.3426 8.78037 15.5042 6.80606 16.7921 5.51817C18.2649 4.04541 20.6353 4.04541 25.376 4.04541H27.0521C31.7928 4.04541 34.1633 4.04541 35.6359 5.51817C37.1087 6.99094 37.1087 9.36131 37.1087 14.1021V27.5109C37.1087 32.2516 37.1087 34.622 35.6359 36.0948C34.1633 37.5676 31.7928 37.5676 27.0521 37.5676H25.376C20.6353 37.5676 18.2649 37.5676 16.7921 36.0948C15.5042 34.8069 15.3426 32.8326 15.3223 29.187" stroke="currentColor" stroke-width="2.51416" stroke-linecap="round"/>
</svg>
