<svg  viewBox="0 0 34 34" fill="none" xmlns="http://www.w3.org/2000/svg">
<path d="M3.14006 16.4249C2.84356 24.2683 8.96163 30.8671 16.8051 31.1636L16.718 33.4666C7.60255 33.122 0.492468 25.4533 0.837055 16.3378L3.14006 16.4249ZM16.8051 31.1636C24.6485 31.4601 31.2473 25.342 31.5438 17.4986L33.8468 17.5857C33.5022 26.7011 25.8334 33.8112 16.718 33.4666L16.8051 31.1636ZM31.5438 17.4986C31.8403 9.65515 25.7222 3.05639 17.8788 2.75989L17.9658 0.456885C27.0812 0.80147 34.1914 8.47029 33.8468 17.5857L31.5438 17.4986ZM11.8377 20.2131C16.7133 20.3974 20.8153 16.5943 20.9996 11.7187L23.3026 11.8057C23.0702 17.9534 17.8982 22.7485 11.7506 22.5161L11.8377 20.2131ZM4.43707 15.6575C5.88801 18.2774 8.63156 20.0919 11.8377 20.2131L11.7506 22.5161C7.70514 22.3632 4.24657 20.0705 2.42083 16.7739L4.43707 15.6575ZM20.9996 11.7187C21.1208 8.5126 19.5185 5.63986 17.0157 3.99522L18.2811 2.06914C21.4305 4.13848 23.4555 7.76025 23.3026 11.8057L20.9996 11.7187ZM17.8788 2.75989C18.0147 2.76503 18.1763 2.70976 18.2965 2.59376C18.3983 2.4955 18.4247 2.39989 18.4315 2.36109C18.4398 2.31349 18.4418 2.17472 18.2811 2.06914L17.0157 3.99522C16.2607 3.49924 16.0446 2.63517 16.1609 1.96658C16.2816 1.27155 16.8656 0.415294 17.9658 0.456885L17.8788 2.75989ZM2.42083 16.7739C2.5141 16.9421 2.65262 16.9506 2.70061 16.9459C2.73981 16.942 2.83725 16.923 2.9429 16.8289C3.06764 16.7178 3.13492 16.5608 3.14006 16.4249L0.837055 16.3378C0.878646 15.2376 1.77661 14.7199 2.47875 14.652C3.1542 14.5865 3.99953 14.8673 4.43707 15.6575L2.42083 16.7739Z" fill="currentColor"/>
</svg>
