<svg  viewBox="0 0 44 44" fill="none" xmlns="http://www.w3.org/2000/svg">
<path d="M36.6667 7.33325H5.5" stroke="currentColor" stroke-width="1.5" stroke-linecap="round"/>
<path d="M14.6667 25.6667H5.5" stroke="currentColor" stroke-width="1.5" stroke-linecap="round"/>
<path d="M22 16.5H5.5" stroke="currentColor" stroke-width="1.5" stroke-linecap="round"/>
<path d="M29.3337 31.9525C29.3337 34.556 27.2816 36.6667 24.7503 36.6667C22.219 36.6667 20.167 34.556 20.167 31.9525C20.167 29.3488 22.219 27.2381 24.7503 27.2381C27.2816 27.2381 29.3337 29.3488 29.3337 31.9525ZM29.3337 31.9525V20.1667" stroke="currentColor" stroke-width="1.5"/>
<path d="M34.2372 14.8795L31.0206 16.4234C30.3941 16.7241 30.081 16.8745 29.8546 17.1062C29.6731 17.2922 29.533 17.5147 29.4439 17.7589C29.333 18.0632 29.333 18.4107 29.333 19.1055C29.333 20.7123 29.333 21.5156 29.6834 21.9976C29.9602 22.3788 30.3731 22.6386 30.8365 22.7233C31.4225 22.8305 32.1468 22.4829 33.5955 21.7875L36.8121 20.2435C37.4385 19.9428 37.7517 19.7925 37.9781 19.5608C38.1596 19.3749 38.2997 19.1523 38.3888 18.9081C38.4997 18.6038 38.4997 18.2564 38.4997 17.5615C38.4997 15.9547 38.4997 15.1513 38.1493 14.6693C37.8725 14.2883 37.4596 14.0284 36.9962 13.9437C36.4102 13.8365 35.6859 14.1841 34.2372 14.8795Z" stroke="currentColor" stroke-width="1.5" stroke-linecap="round"/>
</svg>
