<?xml version="1.0" encoding="UTF-8"?>
<svg id="Layer_1" xmlns="http://www.w3.org/2000/svg" version="1.1" viewBox="0 0 44 44">
  <!-- Generator: Adobe Illustrator 29.2.1, SVG Export Plug-In . SVG Version: 2.1.0 Build 116)  -->
  <defs>
    <style>
      .st0 {
        stroke-linecap: round;
      }

      .st0, .st1 {
        fill: none;
        stroke: currentColor;
        stroke-width: 1.5px;
      }
    </style>
  </defs>
  <path class="st1" d="M7.3,20.2h22c3.5,0,5.2,0,6.3,1.1,1.1,1.1,1.1,2.8,1.1,6.3v1.8c0,5.2,0,7.8-1.6,9.4-1.6,1.6-4.2,1.6-9.4,1.6h-7.3c-5.2,0-7.8,0-9.4-1.6-1.6-1.6-1.6-4.2-1.6-9.4v-9.2Z"/>
  <path class="st1" d="M7.3,20.2c-.9-3.3-1.3-5-.9-6.4.2-.9.7-1.8,1.4-2.5,1-1,2.7-1.5,6-2.4l12.8-3.4c1.2-.3,1.9-.5,2.4-.5,2.2-.1,4.3,1.1,5.3,3.1.2.5.4,1.1.7,2.3.1.4.2.6.2.8,0,.7-.4,1.4-1,1.8-.2,0-.4.1-.8.2l-26.1,7Z"/>
  <path class="st0" d="M27,5.4l-1.2,9.8"/>
  <path class="st0" d="M15.4,8.5l-1.2,9.8"/>
  <path class="st0" d="M25.7,30.2c0-.8-.7-1.3-2.2-2.3-1.5-1.1-2.2-1.6-2.8-1.2-.6.4-.6,1.4-.6,3.5s0,3.2.6,3.5c.6.4,1.3-.1,2.8-1.2,1.5-1,2.2-1.6,2.2-2.3Z"/>
</svg>