<?xml version="1.0" encoding="UTF-8"?>
<svg id="Layer_1" data-name="Layer 1" xmlns="http://www.w3.org/2000/svg" viewBox="0 0 44 44">
  <defs>
    <style>
      .cls-1 {
        stroke-linecap: round;
      }

      .cls-1, .cls-2 {
        fill: none;
        stroke: currentColor;
        stroke-width: 1.5px;
      }
    </style>
  </defs>
  <path class="cls-2" d="M7.33,20.17h22c3.46,0,5.19,0,6.26,1.07,1.07,1.07,1.07,2.8,1.07,6.26v1.83c0,5.19,0,7.78-1.61,9.39-1.61,1.61-4.2,1.61-9.39,1.61h-7.33c-5.19,0-7.78,0-9.39-1.61-1.61-1.61-1.61-4.2-1.61-9.39v-9.17Z"/>
  <path class="cls-2" d="M7.34,20.17c-.89-3.31-1.33-4.97-.95-6.39.25-.93.74-1.78,1.42-2.47,1.04-1.04,2.7-1.49,6.01-2.37l12.84-3.44c1.23-.33,1.85-.5,2.39-.53,2.22-.15,4.31,1.06,5.29,3.06.24.49.4,1.1.74,2.34.11.41.17.62.18.8.05.74-.35,1.44-1.02,1.76-.16.08-.37.14-.78.25l-26.12,7Z"/>
  <path class="cls-1" d="M26.95,5.39l-1.17,9.8"/>
  <path class="cls-1" d="M15.44,8.48l-1.17,9.8"/>
  <path class="cls-1" d="M25.67,30.25c0-.77-.73-1.3-2.18-2.34-1.48-1.06-2.21-1.59-2.77-1.2-.55.39-.55,1.44-.55,3.54s0,3.15.55,3.54c.55.39,1.29-.14,2.77-1.2,1.46-1.04,2.18-1.57,2.18-2.34Z"/>
</svg>