<svg  viewBox="0 0 38 38" fill="none" xmlns="http://www.w3.org/2000/svg">
<path d="M14.4146 18.9558C14.4146 21.0772 12.6949 22.7969 10.5735 22.7969C8.45214 22.7969 6.73242 21.0772 6.73242 18.9558C6.73242 16.8345 8.45214 15.1147 10.5735 15.1147C12.6949 15.1147 14.4146 16.8345 14.4146 18.9558Z" stroke="currentColor" stroke-width="2.51416"/>
<path d="M22.0982 10.5059L14.416 15.8834" stroke="currentColor" stroke-width="2.51416" stroke-linecap="round"/>
<path d="M22.0982 27.4063L14.416 22.0288" stroke="currentColor" stroke-width="2.51416" stroke-linecap="round"/>
<path d="M29.7818 28.9422C29.7818 31.0635 28.062 32.7832 25.9407 32.7832C23.8193 32.7832 22.0996 31.0635 22.0996 28.9422C22.0996 26.8208 23.8193 25.1011 25.9407 25.1011C28.062 25.1011 29.7818 26.8208 29.7818 28.9422Z" stroke="currentColor" stroke-width="2.51416"/>
<path d="M29.7818 8.96901C29.7818 11.0904 28.062 12.8101 25.9407 12.8101C23.8193 12.8101 22.0996 11.0904 22.0996 8.96901C22.0996 6.84764 23.8193 5.12793 25.9407 5.12793C28.062 5.12793 29.7818 6.84764 29.7818 8.96901Z" stroke="currentColor" stroke-width="2.51416"/>
</svg>
