<svg  viewBox="0 0 38 38" fill="none" xmlns="http://www.w3.org/2000/svg">
<path d="M14.4152 29.9104C10.0995 29.9104 7.9416 29.9104 6.3915 28.8747C5.72045 28.4263 5.14429 27.8501 4.6959 27.1791C3.66016 25.629 3.66016 23.4711 3.66016 19.1554C3.66016 14.8397 3.66016 12.6818 4.6959 11.1317C5.14429 10.4607 5.72045 9.88452 6.3915 9.43613C7.9416 8.40039 10.0995 8.40039 14.4152 8.40039H23.6338C27.9495 8.40039 30.1074 8.40039 31.6575 9.43613C32.3285 9.88452 32.9046 10.4607 33.3531 11.1317C34.3888 12.6818 34.3888 14.8397 34.3888 19.1554C34.3888 23.4711 34.3888 25.629 33.3531 27.1791C32.9046 27.8501 32.3285 28.4263 31.6575 28.8747C30.1074 29.9104 27.9495 29.9104 23.6338 29.9104H14.4152Z" stroke="currentColor" stroke-width="2.51416"/>
<path d="M14.414 14.5459C11.8683 14.5459 9.80469 16.6095 9.80469 19.1552C9.80469 21.7009 11.8683 23.7645 14.414 23.7645" stroke="currentColor" stroke-width="2.51416"/>
<path d="M23.6328 14.5459C26.1785 14.5459 28.2421 16.6095 28.2421 19.1552C28.2421 21.7009 26.1785 23.7645 23.6328 23.7645" stroke="currentColor" stroke-width="2.51416"/>
<path d="M14.4141 8.40039V29.1422" stroke="currentColor" stroke-width="2.51416" stroke-linecap="round"/>
<path d="M23.6328 8.40039V29.1422" stroke="currentColor" stroke-width="2.51416" stroke-linecap="round"/>
</svg>
