<svg  viewBox="0 0 45 44" fill="none" xmlns="http://www.w3.org/2000/svg">
<path d="M9.66699 14.6667C9.66699 9.48129 9.66699 6.88857 11.2779 5.27766C12.8888 3.66675 15.4815 3.66675 20.667 3.66675H24.3337C29.5191 3.66675 32.1118 3.66675 33.7227 5.27766C35.3337 6.88857 35.3337 9.48129 35.3337 14.6667V29.3334C35.3337 34.5188 35.3337 37.1115 33.7227 38.7225C32.1118 40.3334 29.5191 40.3334 24.3337 40.3334H20.667C15.4815 40.3334 12.8888 40.3334 11.2779 38.7225C9.66699 37.1115 9.66699 34.5188 9.66699 29.3334V14.6667Z" stroke="currentColor" stroke-width="1.5"/>
<path d="M35.333 35.75C36.1846 35.75 36.6105 35.75 36.9667 35.6935C38.9278 35.383 40.466 33.8448 40.7765 31.8837C40.833 31.5275 40.833 31.1016 40.833 30.25V13.75C40.833 12.8984 40.833 12.4726 40.7765 12.1163C40.466 10.1552 38.9278 8.61705 36.9667 8.30643C36.6105 8.25 36.1846 8.25 35.333 8.25" stroke="currentColor" stroke-width="1.5"/>
<path d="M9.66699 35.75C8.81541 35.75 8.38962 35.75 8.03333 35.6935C6.07216 35.383 4.53404 33.8448 4.22342 31.8837C4.16699 31.5275 4.16699 31.1016 4.16699 30.25V13.75C4.16699 12.8984 4.16699 12.4726 4.22342 12.1163C4.53404 10.1552 6.07216 8.61705 8.03333 8.30643C8.38962 8.25 8.81541 8.25 9.66699 8.25" stroke="currentColor" stroke-width="1.5"/>
<path d="M22.5003 27.4999C22.5003 29.525 20.8588 31.1666 18.8337 31.1666C16.8086 31.1666 15.167 29.525 15.167 27.4999C15.167 25.4748 16.8086 23.8333 18.8337 23.8333C20.8588 23.8333 22.5003 25.4748 22.5003 27.4999ZM22.5003 27.4999V18.3333" stroke="currentColor" stroke-width="1.5"/>
<path d="M26.2737 14.6134L23.8596 15.8204C23.5252 15.9876 23.358 16.0713 23.2198 16.1769C22.8619 16.4505 22.6173 16.8462 22.5326 17.2886C22.5 17.4594 22.5 17.6464 22.5 18.0204C22.5 18.9106 22.5 19.3557 22.6096 19.6582C22.8993 20.4579 23.701 20.9534 24.5458 20.8548C24.8654 20.8176 25.2636 20.6185 26.0596 20.2205L28.4737 19.0134C28.8081 18.8462 28.9753 18.7626 29.1136 18.6568C29.4714 18.3833 29.716 17.9876 29.8007 17.5452C29.8333 17.3744 29.8333 17.1874 29.8333 16.8134C29.8333 15.9232 29.8333 15.4782 29.7237 15.1756C29.434 14.3759 28.6323 13.8804 27.7875 13.979C27.468 14.0163 27.0698 14.2153 26.2737 14.6134Z" stroke="currentColor" stroke-width="1.5" stroke-linecap="round"/>
</svg>
