<svg  viewBox="0 0 38 38" fill="none" xmlns="http://www.w3.org/2000/svg">
<path d="M34.3888 26.6627V18.9805C34.3888 10.4951 27.5099 3.61621 19.0245 3.61621C10.539 3.61621 3.66016 10.4951 3.66016 18.9805V28.1991" stroke="currentColor" stroke-width="2.51416"/>
<path d="M12.8788 23.8764C12.8788 22.9879 12.8788 22.5436 12.7727 22.1907C12.5274 21.3747 11.8871 20.7558 11.09 20.5642C10.7453 20.4815 10.3218 20.5164 9.47474 20.5863C8.00476 20.7077 7.26977 20.7684 6.67055 21.0002C5.28884 21.5346 4.23463 22.7276 3.83393 24.2103C3.66016 24.8533 3.66016 25.6244 3.66016 27.1666V27.4516C3.66016 29.0327 3.66016 29.8234 3.84921 30.4922C4.22025 31.805 5.10748 32.891 6.2895 33.479C6.89178 33.7786 7.63847 33.902 9.13184 34.1486C10.1229 34.3122 10.6184 34.3941 11.0194 34.3114C11.8096 34.1487 12.4612 33.5663 12.7382 32.7755C12.8788 32.374 12.8788 31.8493 12.8788 30.8001V23.8764Z" stroke="currentColor" stroke-width="2.51416"/>
<path d="M25.168 23.8764C25.168 22.9879 25.168 22.5436 25.274 22.1907C25.5192 21.3747 26.1596 20.7558 26.9567 20.5642C27.3015 20.4815 27.7249 20.5164 28.5719 20.5863C30.042 20.7077 30.7769 20.7684 31.3762 21.0002C32.7579 21.5346 33.8121 22.7276 34.2128 24.2103C34.3866 24.8533 34.3866 25.6244 34.3866 27.1666V27.4516C34.3866 29.0327 34.3866 29.8234 34.1976 30.4922C33.8265 31.805 32.9392 32.891 31.7573 33.479C31.155 33.7786 30.4083 33.902 28.9149 34.1486C27.9239 34.3122 27.4284 34.3941 27.0274 34.3114C26.2372 34.1487 25.5854 33.5663 25.3086 32.7755C25.168 32.374 25.168 31.8493 25.168 30.8001V23.8764Z" stroke="currentColor" stroke-width="2.51416"/>
<path d="M19.0234 10.5303V18.2124" stroke="currentColor" stroke-width="2.51416" stroke-linecap="round"/>
<path d="M23.6328 12.8345V15.9073" stroke="currentColor" stroke-width="2.51416" stroke-linecap="round"/>
<path d="M14.4141 12.8345V15.9073" stroke="currentColor" stroke-width="2.51416" stroke-linecap="round"/>
</svg>
