<svg viewBox="0 0 38 38" fill="none" xmlns="http://www.w3.org/2000/svg">
<path d="M6.243 20.6792L5.4314 21.4972C5.88067 21.943 6.60535 21.943 7.05461 21.4972L6.243 20.6792ZM9.63554 18.9365C10.0873 18.4883 10.0902 17.7586 9.64193 17.3069C9.19369 16.8551 8.46409 16.8523 8.01231 17.3005L9.63554 18.9365ZM4.47369 17.3005C4.02192 16.8523 3.29231 16.8551 2.84408 17.3069C2.39584 17.7586 2.39871 18.4883 2.85048 18.9365L4.47369 17.3005ZM29.1908 12.0641C29.5241 12.6063 30.2338 12.7756 30.776 12.4423C31.318 12.109 31.4873 11.3993 31.1541 10.8572L29.1908 12.0641ZM19.1476 4.1626C11.3927 4.1626 5.09068 10.4024 5.09068 18.1185H7.39533C7.39533 11.6922 12.6484 6.46725 19.1476 6.46725V4.1626ZM5.09068 18.1185V20.6792H7.39533V18.1185H5.09068ZM7.05461 21.4972L9.63554 18.9365L8.01231 17.3005L5.4314 19.8613L7.05461 21.4972ZM7.05461 19.8613L4.47369 17.3005L2.85048 18.9365L5.4314 21.4972L7.05461 19.8613ZM31.1541 10.8572C28.686 6.84255 24.2308 4.1626 19.1476 4.1626V6.46725C23.4028 6.46725 27.1276 8.70806 29.1908 12.0641L31.1541 10.8572Z" fill="currentColor"/>
<path d="M31.7984 17.6064L32.6084 16.7869C32.1596 16.3432 31.4372 16.3432 30.9884 16.7869L31.7984 17.6064ZM28.3975 19.3477C27.9449 19.7949 27.9407 20.5246 28.388 20.9772C28.8354 21.4298 29.565 21.4341 30.0177 20.9867L28.3975 19.3477ZM33.5791 20.9867C34.0318 21.4341 34.7614 21.4298 35.2087 20.9772C35.6561 20.5246 35.6519 19.7949 35.1993 19.3475L33.5791 20.9867ZM8.75812 26.2198C8.42388 25.6782 7.7139 25.5101 7.17232 25.8445C6.63073 26.1786 6.46264 26.8886 6.79686 27.4302L8.75812 26.2198ZM18.8444 34.1231C26.6225 34.1231 32.9507 27.8875 32.9507 20.1672H30.6461C30.6461 26.5893 25.375 31.8184 18.8444 31.8184V34.1231ZM32.9507 20.1672V17.6064H30.6461V20.1672H32.9507ZM30.9884 16.7869L28.3975 19.3477L30.0177 20.9867L32.6084 18.426L30.9884 16.7869ZM30.9884 18.426L33.5791 20.9867L35.1993 19.3475L32.6084 16.7869L30.9884 18.426ZM6.79686 27.4302C9.27453 31.4451 13.7455 34.1231 18.8444 34.1231V31.8184C14.5694 31.8184 10.8291 29.5757 8.75812 26.2198L6.79686 27.4302Z" fill="currentColor"/>
</svg>
