<svg viewBox="0 0 38 38" fill="none" xmlns="http://www.w3.org/2000/svg">
<path d="M23.6346 8.21338H14.416" stroke="currentColor" stroke-width="2.51416" stroke-linecap="round"/>
<path d="M33.5093 22.6741C33.0104 22.2787 32.2857 22.3628 31.8905 22.8615C31.4953 23.3604 31.5792 24.0851 32.0781 24.4803L33.5093 22.6741ZM5.97477 24.4803C6.47359 24.0851 6.55757 23.3604 6.16234 22.8615C5.76713 22.3628 5.04236 22.2787 4.54354 22.6741L5.97477 24.4803ZM19.0264 32.3156L19.7853 33.1828C20.0352 32.964 20.1787 32.648 20.1787 32.3156C20.1787 31.9833 20.0352 31.6673 19.7853 31.4485L19.0264 32.3156ZM16.7218 30.2991L17.4806 29.4319C17.1403 29.1341 16.6574 29.0628 16.2456 29.2497C15.8339 29.4365 15.5694 29.8469 15.5694 30.2991H16.7218ZM16.7218 34.3322H15.5694C15.5694 34.7844 15.8339 35.1947 16.2456 35.3816C16.6574 35.5684 17.1403 35.4971 17.4806 35.1994L16.7218 34.3322ZM22.7513 30.9786C22.1182 31.0427 21.6569 31.6081 21.721 32.2413C21.7852 32.8744 22.3505 33.3357 22.9837 33.2714L22.7513 30.9786ZM32.0781 24.4803C32.9594 25.1787 33.2384 25.7942 33.2384 26.2659H35.5431C35.5431 24.806 34.6724 23.5956 33.5093 22.6741L32.0781 24.4803ZM4.81441 26.2659C4.81441 25.7942 5.09338 25.1787 5.97477 24.4803L4.54354 22.6741C3.38042 23.5956 2.50977 24.806 2.50977 26.2659H4.81441ZM19.7853 31.4485L17.4806 29.4319L15.9629 31.1662L18.2676 33.1828L19.7853 31.4485ZM17.4806 35.1994L19.7853 33.1828L18.2676 31.4485L15.9629 33.465L17.4806 35.1994ZM33.2384 26.2659C33.2384 26.9675 32.5848 27.9749 30.5979 28.9705C28.7081 29.9174 25.9742 30.652 22.7513 30.9786L22.9837 33.2714C26.3875 32.9265 29.4153 32.1409 31.6304 31.031C33.7484 29.9696 35.5431 28.3833 35.5431 26.2659H33.2384ZM15.5694 30.2991V32.248H17.8741V30.2991H15.5694ZM15.5694 32.248V34.3322H17.8741V32.248H15.5694ZM16.7898 31.0977C13.1902 30.8844 10.0729 30.168 7.89582 29.1807C6.80535 28.6861 6.0042 28.1476 5.49143 27.6174C4.98385 27.0925 4.81441 26.6393 4.81441 26.2659H2.50977C2.50977 27.409 3.04876 28.4068 3.83485 29.2196C4.61574 30.027 5.69347 30.7124 6.94389 31.2795C9.44859 32.4155 12.8611 33.1737 16.6537 33.3984L16.7898 31.0977Z" fill="currentColor"/>
<path d="M9.03978 26.6505C9.03711 26.1708 9.03711 25.6595 9.03711 25.1141V12.8226C9.03711 8.47691 9.03711 6.30407 10.3871 4.95404C11.7372 3.604 13.91 3.604 18.2557 3.604H19.7921C24.1378 3.604 26.3106 3.604 27.6607 4.95404C29.0107 6.30407 29.0107 8.47691 29.0107 12.8226V25.1141C29.0107 25.6595 29.0107 26.1708 29.0081 26.6505" stroke="currentColor" stroke-width="2.51416" stroke-linecap="round"/>
</svg>
