<svg  viewBox="0 0 45 44" fill="none" xmlns="http://www.w3.org/2000/svg">
<path d="M5.08301 11.9166C5.08301 8.45962 5.08301 6.73113 6.15696 5.6572C7.23089 4.58325 8.95937 4.58325 12.4163 4.58325C15.8733 4.58325 17.6018 4.58325 18.6757 5.6572C19.7497 6.73113 19.7497 8.45962 19.7497 11.9166C19.7497 15.3736 19.7497 17.102 18.6757 18.176C17.6018 19.2499 15.8733 19.2499 12.4163 19.2499C8.95937 19.2499 7.23089 19.2499 6.15696 18.176C5.08301 17.102 5.08301 15.3736 5.08301 11.9166Z" stroke="currentColor" stroke-width="1.5"/>
<path d="M25.25 32.0833C25.25 28.6264 25.25 26.8979 26.324 25.824C27.3979 24.75 29.1264 24.75 32.5833 24.75C36.0403 24.75 37.7687 24.75 38.8427 25.824C39.9167 26.8979 39.9167 28.6264 39.9167 32.0833C39.9167 35.5403 39.9167 37.2687 38.8427 38.3427C37.7687 39.4167 36.0403 39.4167 32.5833 39.4167C29.1264 39.4167 27.3979 39.4167 26.324 38.3427C25.25 37.2687 25.25 35.5403 25.25 32.0833Z" stroke="currentColor" stroke-width="1.5"/>
<path d="M5.08301 32.0833C5.08301 28.6264 5.08301 26.8979 6.15696 25.824C7.23089 24.75 8.95937 24.75 12.4163 24.75C15.8733 24.75 17.6018 24.75 18.6757 25.824C19.7497 26.8979 19.7497 28.6264 19.7497 32.0833C19.7497 35.5403 19.7497 37.2687 18.6757 38.3427C17.6018 39.4167 15.8733 39.4167 12.4163 39.4167C8.95937 39.4167 7.23089 39.4167 6.15696 38.3427C5.08301 37.2687 5.08301 35.5403 5.08301 32.0833Z" stroke="currentColor" stroke-width="1.5"/>
<path d="M25.25 11.9166C25.25 8.45962 25.25 6.73113 26.324 5.6572C27.3979 4.58325 29.1264 4.58325 32.5833 4.58325C36.0403 4.58325 37.7687 4.58325 38.8427 5.6572C39.9167 6.73113 39.9167 8.45962 39.9167 11.9166C39.9167 15.3736 39.9167 17.102 38.8427 18.176C37.7687 19.2499 36.0403 19.2499 32.5833 19.2499C29.1264 19.2499 27.3979 19.2499 26.324 18.176C25.25 17.102 25.25 15.3736 25.25 11.9166Z" stroke="currentColor" stroke-width="1.5"/>
</svg>
